<svg width="70" height="70" viewBox="0 0 70 70" fill="none" xmlns="http://www.w3.org/2000/svg">
<path d="M70 15.4651C70 11.3628 68.3721 7.42977 65.4712 4.52884C62.5702 1.62791 58.6372 0 54.5349 0H15.4651C11.3628 0 7.42977 1.62791 4.52884 4.52884C1.62791 7.42977 0 11.3628 0 15.4651V54.5349C0 58.6372 1.62791 62.5702 4.52884 65.4712C7.42977 68.3721 11.3628 70 15.4651 70H54.5349C58.6372 70 62.5702 68.3721 65.4712 65.4712C68.3721 62.5702 70 58.6372 70 54.5349V15.4651ZM65.1163 15.4651V54.5349C65.1163 57.3414 64.0028 60.034 62.0167 62.0167C60.034 64.0028 57.3414 65.1163 54.5349 65.1163H15.4651C12.6586 65.1163 9.96605 64.0028 7.98326 62.0167C5.99721 60.034 4.88372 57.3414 4.88372 54.5349V15.4651C4.88372 12.6586 5.99721 9.96605 7.98326 7.98326C9.96605 5.99721 12.6586 4.88372 15.4651 4.88372H54.5349C57.3414 4.88372 60.034 5.99721 62.0167 7.98326C64.0028 9.96605 65.1163 12.6586 65.1163 15.4651Z" fill="white"/>
<path d="M36.5889 22.5075L28.7749 45.9493C28.3517 47.2289 29.0419 48.6126 30.3214 49.0391C31.601 49.4623 32.9847 48.7721 33.4112 47.4926L41.2251 24.0507C41.6484 22.7712 40.9582 21.3875 39.6786 20.961C38.3991 20.5377 37.0154 21.2279 36.5889 22.5075Z" fill="white"/>
<path d="M44.9954 28.9116L51.0805 35L44.9954 41.0884C44.0414 42.0391 44.0414 43.5888 44.9954 44.5395C45.9461 45.4935 47.4958 45.4935 48.4465 44.5395L56.2605 36.7256C57.2144 35.7716 57.2144 34.2284 56.2605 33.2744L48.4465 25.4605C47.4958 24.5065 45.9461 24.5065 44.9954 25.4605C44.0414 26.4112 44.0414 27.9609 44.9954 28.9116V28.9116Z" fill="white"/>
<path d="M21.5535 25.4605L13.7395 33.2744C12.7856 34.2284 12.7856 35.7716 13.7395 36.7256L21.5535 44.5395C22.5042 45.4935 24.0539 45.4935 25.0046 44.5395C25.9586 43.5888 25.9586 42.0391 25.0046 41.0884L18.9195 35L25.0046 28.9116C25.9586 27.9609 25.9586 26.4112 25.0046 25.4605C24.0539 24.5065 22.5042 24.5065 21.5535 25.4605V25.4605Z" fill="white"/>
</svg>
