<svg width="74" height="75" viewBox="0 0 74 75" fill="none" xmlns="http://www.w3.org/2000/svg">
<path d="M15.2367 7.29134L15.2474 7.2842L15.2577 7.27652C22.5237 1.8457 31.0109 0.0617277 38.7914 0.588008C45.781 1.06079 52.1651 3.39556 56.548 6.58502C50.7717 5.95182 46.086 7.12614 42.3333 9.48728C38.2004 12.0877 35.2442 16.0988 33.1981 20.6074C29.2111 29.3927 28.6241 40.1877 29.6011 46.5766C20.91 48.5756 14.3487 47.4263 9.67683 44.7086C4.94576 41.9564 2.09723 37.5643 0.93535 33.0641C0.936947 33.0359 0.939147 32.9994 0.942098 32.9549C0.950192 32.833 0.963929 32.651 0.986337 32.415C1.03116 31.9429 1.11064 31.2551 1.24895 30.3994C1.52568 28.6874 2.03735 26.3072 2.97621 23.6408C4.85489 18.3054 8.43361 11.8517 15.2367 7.29134Z" fill="white" stroke="#151515"/>
<path d="M21.4908 70.6955L21.4793 70.6898L21.4675 70.6848C13.1359 67.1095 7.45651 60.5894 4.12956 53.5228C1.13903 47.1709 0.0641317 40.4085 0.65651 35.0004C2.99911 40.3222 6.37397 43.7855 10.3162 45.8415C14.6557 48.1046 19.6349 48.6379 24.5892 48.1348C34.2437 47.1544 43.9389 42.2253 48.9857 38.1829C55.0621 44.709 57.3222 50.9178 57.2811 56.2732C57.2395 61.6984 54.8363 66.3161 51.5155 69.5747C51.4884 69.589 51.452 69.608 51.4067 69.6313C51.2928 69.6898 51.1222 69.7756 50.8988 69.8827C50.452 70.0969 49.7945 70.3962 48.9579 70.7333C47.284 71.4078 44.8968 72.2321 42.0483 72.8294C36.347 74.0247 28.8349 74.3035 21.4908 70.6955Z" fill="white" stroke="#151515"/>
<mask id="path-3-inside-1_282_217" fill="white">
<path d="M31.444 26.1671C43.3106 30.5594 68.6773 49.5959 51.814 69.9821C62.9154 66.1165 75.9334 51.3263 73.7602 33.0346C72.6456 16.4077 58.3 7.33492 58.3 7.33492C49.0858 4.7374 36.702 8.38971 31.444 26.1671"/>
</mask>
<path d="M31.444 26.1671C43.3106 30.5594 68.6773 49.5959 51.814 69.9821C62.9154 66.1165 75.9334 51.3263 73.7602 33.0346C72.6456 16.4077 58.3 7.33492 58.3 7.33492C49.0858 4.7374 36.702 8.38971 31.444 26.1671" fill="white"/>
<path d="M51.814 69.9821L51.0434 69.3447L48.7608 72.1041L52.1428 70.9265L51.814 69.9821ZM73.7602 33.0346L72.7624 33.1015L72.7642 33.1271L72.7672 33.1526L73.7602 33.0346ZM58.3 7.33492L58.8345 6.48976L58.7114 6.41194L58.5713 6.37244L58.3 7.33492ZM31.0968 27.1049C36.8788 29.245 46.0124 34.9949 51.5941 42.6653C54.3753 46.4871 56.2332 50.7282 56.4149 55.1939C56.5958 59.6373 55.1225 64.4135 51.0434 69.3447L52.5845 70.6195C56.9371 65.3576 58.6167 60.1095 58.4133 55.1126C58.2108 50.1381 56.1472 45.5231 53.2113 41.4885C47.3588 33.446 37.8758 27.4815 31.7911 25.2293L31.0968 27.1049ZM52.1428 70.9265C57.9265 68.9125 64.121 64.0964 68.5936 57.478C73.0768 50.8442 75.8724 42.3368 74.7532 32.9167L72.7672 33.1526C73.8212 42.0241 71.1944 50.0577 66.9365 56.3582C62.6681 62.6743 56.8028 67.186 51.4851 69.0377L52.1428 70.9265ZM74.758 32.9678C74.1817 24.3715 70.1859 17.7491 66.3713 13.2989C64.4622 11.0716 62.5891 9.37702 61.1907 8.2372C60.4909 7.6669 59.9087 7.23433 59.4982 6.94236C59.2929 6.79634 59.1304 6.68538 59.0176 6.60985C58.9611 6.57208 58.9171 6.54316 58.8863 6.52314C58.8709 6.51312 58.8588 6.50533 58.8502 6.49977C58.8458 6.49699 58.8423 6.49476 58.8397 6.49309C58.8384 6.49226 58.8373 6.49156 58.8364 6.49101C58.836 6.49073 58.8355 6.49042 58.8353 6.49028C58.8348 6.49001 58.8345 6.48976 58.3 7.33492C57.7654 8.18008 57.7652 8.17991 57.7649 8.17977C57.7649 8.17977 57.7648 8.17966 57.7648 8.17966C57.7648 8.17966 57.765 8.1798 57.7654 8.18007C57.7663 8.18062 57.768 8.18171 57.7706 8.18335C57.7757 8.18664 57.7842 8.19212 57.796 8.19978C57.8195 8.2151 57.8562 8.23915 57.9051 8.27189C58.0029 8.33739 58.1498 8.43759 58.3389 8.57213C58.7173 8.84127 59.2645 9.24742 59.9271 9.78749C61.2533 10.8684 63.0362 12.4812 64.8528 14.6005C68.4898 18.8434 72.2241 25.0709 72.7624 33.1015L74.758 32.9678ZM58.5713 6.37244C53.7382 5.00995 48.057 5.28279 42.8912 8.24277C37.7171 11.2076 33.1706 16.8037 30.485 25.8835L32.4029 26.4507C34.9754 17.7531 39.2498 12.6344 43.8856 9.97807C48.5298 7.31693 53.6476 7.06237 58.0286 8.29741L58.5713 6.37244Z" fill="#151515" mask="url(#path-3-inside-1_282_217)"/>
</svg>
