<svg width="73" height="75" viewBox="0 0 73 75" fill="none" xmlns="http://www.w3.org/2000/svg">
<path d="M37.8445 42.5677H6.74998C4.96043 42.5698 3.24479 43.2817 1.97939 44.5471C0.713991 45.8125 0.00214574 47.5281 0 49.3177V68.25C0.00214574 70.0396 0.713991 71.7552 1.97939 73.0206C3.24479 74.286 4.96043 74.9979 6.74998 75H37.8445C39.634 74.9979 41.3497 74.286 42.6151 73.0206C43.8805 71.7552 44.5923 70.0396 44.5944 68.25V49.3177C44.5923 47.5281 43.8805 45.8125 42.6151 44.5471C41.3497 43.2817 39.634 42.5698 37.8445 42.5677V42.5677ZM40.5404 68.25C40.5383 68.9644 40.2535 69.6489 39.7484 70.154C39.2433 70.6591 38.5588 70.9438 37.8445 70.946H6.74998C6.03563 70.9438 5.35115 70.6591 4.84602 70.154C4.3409 69.6489 4.05618 68.9644 4.05404 68.25V49.3177C4.05618 48.6033 4.3409 47.9188 4.84602 47.4137C5.35115 46.9086 6.03563 46.6239 6.74998 46.6217H37.8445C38.5588 46.6239 39.2433 46.9086 39.7484 47.4137C40.2535 47.9188 40.5383 48.6033 40.5404 49.3177V68.25Z" fill="#343434"/>
<path d="M65.7687 14.1891H44.5944V6.74998C44.5923 4.96043 43.8805 3.24479 42.6151 1.97939C41.3497 0.713991 39.634 0.00214574 37.8445 0H6.74998C4.96043 0.00214574 3.24479 0.713991 1.97939 1.97939C0.713991 3.24479 0.00214574 4.96043 0 6.74998V25.6824C0.00214574 27.4719 0.713991 29.1875 1.97939 30.4529C3.24479 31.7183 4.96043 32.4302 6.74998 32.4323H37.8445C39.634 32.4302 41.3497 31.7183 42.6151 30.4529C43.8805 29.1875 44.5923 27.4719 44.5944 25.6824V18.2432H65.7687C66.6038 18.2443 67.4044 18.5765 67.9949 19.167C68.5854 19.7575 68.9176 20.5581 68.9187 21.3932V53.6066C68.9176 54.4417 68.5854 55.2423 67.9949 55.8328C67.4044 56.4233 66.6038 56.7555 65.7687 56.7566H55.0093L59.7849 51.9809C59.9785 51.7939 60.133 51.5703 60.2392 51.323C60.3454 51.0757 60.4014 50.8097 60.4037 50.5405C60.406 50.2714 60.3547 50.0045 60.2528 49.7553C60.1509 49.5062 60.0004 49.2799 59.8101 49.0896C59.6197 48.8993 59.3934 48.7488 59.1443 48.6468C58.8952 48.5449 58.6283 48.4936 58.3591 48.496C58.09 48.4983 57.824 48.5542 57.5767 48.6605C57.3294 48.7667 57.1057 48.9211 56.9187 49.1147L47.408 58.6255L57.239 68.4565C57.6213 68.8258 58.1333 69.0301 58.6648 69.0255C59.1963 69.0209 59.7047 68.8077 60.0805 68.4319C60.4563 68.056 60.6695 67.5476 60.6741 67.0161C60.6788 66.4847 60.4744 65.9726 60.1052 65.5903L55.3255 60.8106H65.7687C67.6787 60.8085 69.5098 60.0488 70.8604 58.6982C72.2109 57.3477 72.9706 55.5166 72.9727 53.6066V21.3932C72.9706 19.4832 72.2109 17.6521 70.8604 16.3015C69.5098 14.951 67.6787 14.1913 65.7687 14.1891V14.1891ZM40.5404 25.6824C40.5383 26.3967 40.2535 27.0812 39.7484 27.5863C39.2433 28.0914 38.5588 28.3762 37.8445 28.3783H6.74998C6.03563 28.3762 5.35115 28.0914 4.84602 27.5863C4.3409 27.0812 4.05618 26.3967 4.05404 25.6824V6.74998C4.05618 6.03563 4.3409 5.35115 4.84602 4.84603C5.35115 4.3409 6.03563 4.05618 6.74998 4.05404H37.8445C38.5588 4.05618 39.2433 4.3409 39.7484 4.84603C40.2535 5.35115 40.5383 6.03563 40.5404 6.74998V25.6824Z" fill="white"/>
</svg>
