<svg width="70" height="70" viewBox="0 0 70 70" fill="none" xmlns="http://www.w3.org/2000/svg">
<path d="M61.2499 47.0802V20.4198C61.2499 13.9772 56.0288 8.74998 49.5861 8.74998H39.1247L43.7473 4.12387L39.6225 0L30.0212 9.60486C28.8819 10.7415 28.8819 12.5895 30.0212 13.7296L39.626 23.3345L43.7499 19.2088L39.1247 14.5836L49.5861 14.5862C52.8079 14.5862 55.4163 17.1981 55.4163 20.4198V47.0802C50.3955 48.3813 46.6663 52.9042 46.6663 58.3335C46.6663 64.7761 51.8909 69.9999 58.3335 69.9999C64.7761 69.9999 69.9999 64.7761 69.9999 58.3335C69.9999 52.9042 66.2715 48.3813 61.2499 47.0802ZM58.3335 64.1663C55.1118 64.1663 52.4999 61.5553 52.4999 58.3335C52.4999 55.1118 55.1118 52.4999 58.3335 52.4999C61.5553 52.4999 64.1663 55.1118 64.1663 58.3335C64.1663 61.5553 61.5553 64.1663 58.3335 64.1663Z" fill="white"/>
<path d="M39.9787 56.2711L30.3747 46.6663L26.25 50.791L30.8752 55.4163L20.4137 55.4137C17.192 55.4137 14.5836 52.8018 14.5836 49.58V22.9197C19.6078 21.6186 23.3336 17.0957 23.3336 11.6664C23.3336 5.22462 18.109 0 11.6664 0C5.22374 0 0 5.22462 0 11.6664C0 17.0957 3.72574 21.6186 8.74999 22.9197V49.58C8.74999 56.0227 13.9711 61.2499 20.4137 61.2499H30.8752L26.2526 65.8751L30.3773 69.9999L39.9787 60.395C41.1179 59.2593 41.1179 57.4104 39.9787 56.2711ZM11.6664 17.5C8.44461 17.5 5.83361 14.8881 5.83361 11.6664C5.83361 8.44549 8.44461 5.83274 11.6664 5.83274C14.8881 5.83274 17.5 8.44549 17.5 11.6664C17.5 14.8881 14.8881 17.5 11.6664 17.5Z" fill="white"/>
</svg>
