<svg width="55" height="67" viewBox="0 0 55 67" fill="none" xmlns="http://www.w3.org/2000/svg">
<path d="M32.3889 30.3594C31.6666 30.3594 31.0803 30.9456 31.0803 31.668C31.0803 32.3903 31.6666 32.9766 32.3889 32.9766C33.1113 32.9766 33.6975 32.3903 33.6975 31.668C33.6975 30.9456 33.1113 30.3594 32.3889 30.3594Z" fill="white"/>
<path d="M27.1545 22.5079C26.4322 22.5079 25.8459 23.0942 25.8459 23.8165C25.8459 24.5389 26.4322 25.1251 27.1545 25.1251C27.8769 25.1251 28.4631 24.5389 28.4631 23.8165C28.4631 23.0942 27.8769 22.5079 27.1545 22.5079Z" fill="white"/>
<path d="M11.4514 56.5312C10.7291 56.5312 10.1428 57.1175 10.1428 57.8398C10.1428 58.5622 10.7291 59.1484 11.4514 59.1484C12.1738 59.1484 12.76 58.5622 12.76 57.8398C12.76 57.1175 12.1738 56.5312 11.4514 56.5312Z" fill="white"/>
<path d="M53.1191 53.3485L36.3147 23.4737V7.62727C37.838 7.08721 38.9319 5.63193 38.9319 3.92578C38.9319 1.76111 37.1708 0 35.0061 0H19.303C17.1383 0 15.3772 1.76111 15.3772 3.92578C15.3772 5.63193 16.471 7.08721 17.9944 7.62727V23.4737L1.18994 53.3485C-0.423292 56.2164 -0.394634 59.6244 1.26636 62.4645C2.92723 65.3045 5.88308 67 9.17315 67H45.1359C48.426 67 51.3817 65.3045 53.0427 62.4645C54.7037 59.6244 54.7324 56.2164 53.1191 53.3485ZM20.4435 24.4579C20.5537 24.2621 20.6116 24.0411 20.6116 23.8164V7.85156H21.9202C22.6428 7.85156 23.2288 7.26557 23.2288 6.54297C23.2288 5.82036 22.6428 5.23438 21.9202 5.23438H19.303C18.5814 5.23438 17.9944 4.64734 17.9944 3.92578C17.9944 3.20422 18.5814 2.61719 19.303 2.61719H35.0061C35.7277 2.61719 36.3147 3.20422 36.3147 3.92578C36.3147 4.64734 35.7277 5.23438 35.0061 5.23438H32.3889C31.6663 5.23438 31.0803 5.82036 31.0803 6.54297C31.0803 7.26557 31.6663 7.85156 32.3889 7.85156H33.6975V23.8164C33.6975 24.0412 33.7553 24.262 33.8655 24.4579L41.5785 38.1702C36.8682 37.7888 32.1743 38.7414 27.8617 40.9746C22.3177 43.8435 16.146 44.3486 10.3265 42.4437L20.4435 24.4579ZM50.7834 61.1433C49.5972 63.1717 47.4859 64.3828 45.1359 64.3828H9.17315C6.82318 64.3828 4.71189 63.1717 3.52565 61.1433C2.33915 59.1145 2.3186 56.6802 3.47108 54.6314L9.02057 44.7657C11.7131 45.7059 14.4957 46.1805 17.3219 46.1805C17.7403 46.1805 18.1597 46.1702 18.5798 46.1494C22.2315 45.9685 25.7591 45.0095 29.0648 43.2988C33.4868 41.0092 38.3505 40.2188 43.1692 40.9981L50.8381 54.6314C51.9905 56.6802 51.9701 59.1145 50.7834 61.1433Z" fill="white"/>
<path d="M21.9202 30.3594C19.7555 30.3594 17.9944 32.1205 17.9944 34.2852C17.9944 36.4498 19.7555 38.2109 21.9202 38.2109C24.0848 38.2109 25.8459 36.4498 25.8459 34.2852C25.8459 32.1205 24.0848 30.3594 21.9202 30.3594ZM21.9202 35.5937C21.1986 35.5937 20.6116 35.0067 20.6116 34.2852C20.6116 33.5636 21.1986 32.9766 21.9202 32.9766C22.6417 32.9766 23.2288 33.5636 23.2288 34.2852C23.2288 35.0067 22.6417 35.5937 21.9202 35.5937Z" fill="white"/>
<path d="M42.8577 56.5312H16.6858C15.9632 56.5312 15.3772 57.1172 15.3772 57.8398C15.3772 58.5624 15.9632 59.1484 16.6858 59.1484H42.8577C43.5803 59.1484 44.1663 58.5624 44.1663 57.8398C44.1663 57.1172 43.5803 56.5312 42.8577 56.5312Z" fill="white"/>
</svg>
