<svg width="81" height="70" viewBox="0 0 81 70" fill="none" xmlns="http://www.w3.org/2000/svg">
<path fill-rule="evenodd" clip-rule="evenodd" d="M35 70C31.134 70 28 66.8661 28 63V7C28 3.134 31.134 0 35 0H73.5C77.3661 0 80.5 3.134 80.5 7V63C80.5 66.8661 77.3661 70 73.5 70H35ZM33.25 63C33.25 63.9664 34.0335 64.75 35 64.75H73.5C74.4663 64.75 75.25 63.9664 75.25 63V7C75.25 6.03351 74.4663 5.25 73.5 5.25H35C34.0335 5.25 33.25 6.03351 33.25 7V63Z" fill="white"/>
<path fill-rule="evenodd" clip-rule="evenodd" d="M21.5979 7.57602C22.2462 8.8727 21.7206 10.4495 20.4239 11.0978C19.6243 11.4977 19.3902 11.7165 19.32 11.803C19.3039 11.8228 19.2992 11.8313 19.2911 11.8568C19.2794 11.8937 19.25 12.0079 19.25 12.25V57.75C19.25 57.9922 19.2794 58.1063 19.2911 58.143C19.2991 58.1686 19.3039 58.1773 19.32 58.1969C19.3901 58.2834 19.6242 58.5021 20.4239 58.9022C21.7206 59.5504 22.2462 61.1271 21.5979 62.4238C20.9495 63.7206 19.3727 64.2463 18.0761 63.5977C17.1258 63.1228 16.0474 62.4963 15.2425 61.504C14.3513 60.4054 14 59.1272 14 57.75V12.25C14 10.8728 14.3513 9.59472 15.2425 8.49596C16.0473 7.50364 17.1257 6.87725 18.0761 6.40209C19.3727 5.75375 20.9495 6.27934 21.5979 7.57602V7.57602Z" fill="white"/>
<path fill-rule="evenodd" clip-rule="evenodd" d="M7.5222 12.6857C8.24813 13.9406 7.81931 15.5464 6.56439 16.2723C6.04051 16.5753 5.6665 16.8693 5.4447 17.1295C5.24996 17.3579 5.25 17.4619 5.25 17.4993V52.5001C5.25 52.5375 5.24996 52.6422 5.4447 52.8707C5.6665 53.1308 6.04051 53.4248 6.56439 53.7279C7.81931 54.4538 8.24813 56.0596 7.5222 57.3143C6.7963 58.5694 5.1905 58.9982 3.93561 58.2723C2.55356 57.4729 0 55.6742 0 52.5001V17.5001C0 14.3259 2.55356 12.5273 3.93561 11.7279C5.1905 11.0019 6.7963 11.4307 7.5222 12.6857V12.6857Z" fill="white"/>
</svg>
