<svg width="68" height="68" viewBox="0 0 68 68" fill="none" xmlns="http://www.w3.org/2000/svg">
<path d="M64.2588 3.74054C61.7648 1.247 58.7625 0 55.2496 0H12.7499C9.23807 0 6.23469 1.247 3.74054 3.74054C1.247 6.23454 0 9.23792 0 12.7499V55.2503C0 58.7624 1.247 61.7655 3.74054 64.259C6.23454 66.753 9.23807 68 12.7499 68H22.6665C23.3153 68 23.8026 67.9777 24.1272 67.9343C24.4516 67.8896 24.776 67.6976 25.1008 67.3579C25.4258 67.0188 25.5877 66.5243 25.5877 65.8752C25.5877 65.7871 25.58 64.7826 25.5654 62.8644C25.5503 60.9455 25.5431 59.4257 25.5431 58.304L24.5248 58.4813C23.8755 58.5991 23.0565 58.6511 22.0677 58.6362C21.0793 58.6213 20.0534 58.5183 18.9911 58.3264C17.9282 58.1342 16.9398 57.6917 16.0248 56.9987C15.1102 56.3045 14.461 55.3973 14.0772 54.276L13.6344 53.2571C13.3393 52.579 12.8747 51.826 12.2401 51.0003C11.6054 50.1736 10.9636 49.6127 10.3143 49.3176L10.0044 49.0962C9.798 48.9487 9.60619 48.7709 9.42895 48.5645C9.25203 48.3575 9.11929 48.1506 9.03076 47.9447C8.94222 47.7377 9.01571 47.5679 9.25203 47.4347C9.48834 47.3021 9.91584 47.2364 10.5359 47.2364L11.421 47.369C12.0115 47.4868 12.7415 47.8407 13.6127 48.4313C14.4832 49.0215 15.1988 49.7887 15.7596 50.7329C16.4388 51.9433 17.2571 52.865 18.2167 53.4996C19.1756 54.1349 20.1424 54.4522 21.1162 54.4522C22.09 54.4522 22.931 54.3784 23.6397 54.2314C24.3475 54.0834 25.0117 53.8615 25.6317 53.5665C25.8974 51.5893 26.6206 50.0684 27.8007 49.0061C26.1186 48.8289 24.6062 48.5636 23.2629 48.2091C21.9204 47.8546 20.533 47.2795 19.1018 46.4823C17.67 45.6853 16.4822 44.6973 15.5377 43.516C14.5934 42.3348 13.8184 40.7854 13.2138 38.8676C12.6089 36.9487 12.3064 34.7349 12.3064 32.2265C12.3064 28.6556 13.4726 25.6152 15.8041 23.1067C14.7119 20.4211 14.815 17.411 16.1138 14.0757C16.9697 13.8099 18.2391 14.0093 19.9212 14.6734C21.6036 15.338 22.8354 15.9063 23.6178 16.3779C24.4003 16.8496 25.0272 17.2484 25.4995 17.5734C28.2448 16.806 31.078 16.4224 33.9996 16.4224C36.9211 16.4224 39.7547 16.806 42.5002 17.5734L44.1825 16.5109C45.334 15.8023 46.6914 15.153 48.2558 14.563C49.82 13.9729 51.0151 13.8104 51.8419 14.0761C53.1695 17.4115 53.2883 20.4215 52.1952 23.107C54.5267 25.6158 55.6933 28.6561 55.6933 32.227C55.6933 34.7358 55.3907 36.9571 54.7859 38.8898C54.1814 40.8229 53.3998 42.3729 52.4398 43.5387C51.4809 44.7046 50.2854 45.6852 48.8541 46.4826C47.4226 47.2792 46.0355 47.8554 44.6923 48.2088C43.3493 48.5633 41.837 48.8297 40.1548 49.0069C41.6885 50.3345 42.4557 52.4294 42.4557 55.2928V65.8738C42.4557 66.3757 42.5289 66.7812 42.6765 67.0912C42.8251 67.401 43.0608 67.6144 43.3853 67.7333C43.7112 67.8511 43.9976 67.9248 44.2491 67.9541C44.5007 67.9837 44.8615 67.9986 45.3338 67.9986H55.2504C58.7622 67.9986 61.7658 66.7516 64.2587 64.2576C66.7527 61.7636 67.9997 58.7601 67.9997 55.2482V12.7499C67.9994 9.23792 66.7524 6.23407 64.2588 3.74054Z" fill="white"/>
</svg>
