<svg width="188" height="43" viewBox="0 0 188 43" fill="none" xmlns="http://www.w3.org/2000/svg">
<path d="M0.00124931 41.4813V36.3888H2.81875C2.90541 37.7471 3.22333 38.7442 3.7725 39.38C4.33583 40.0159 5.16666 40.3338 6.265 40.3338C7.66666 40.3338 8.64166 39.7921 9.19 38.7088C9.75333 37.6396 10.035 35.6242 10.035 32.6625V3.98752H5.33375V1.36502H22.5637V3.99002H18.4212V32.8338C18.4212 36.3446 17.5325 38.9092 15.755 40.5275C13.9925 42.1459 11.1825 42.955 7.325 42.955C6.125 42.955 4.91875 42.8321 3.70625 42.5863C2.49292 42.3404 1.2575 41.9721 0 41.4813H0.00124931ZM42.0237 20.7313C42.0237 17.6979 41.7421 15.5742 41.1787 14.36C40.6154 13.1317 39.6546 12.5175 38.2962 12.5175C36.9812 12.5175 36.0354 13.1175 35.4588 14.3175C34.8954 15.5175 34.6137 17.5259 34.6137 20.3425V20.7325H42.0262L42.0237 20.7313ZM50.4538 23.31H34.6112V23.485C34.6112 26.4617 35.0592 28.6146 35.955 29.9438C36.8508 31.2588 38.2958 31.9163 40.29 31.9163C41.9517 31.9163 43.2954 31.4754 44.3212 30.5938C45.3462 29.7121 46.0037 28.4329 46.2937 26.7563H49.8912C49.2696 29.3713 48.0342 31.2929 46.185 32.5213C44.335 33.7496 41.7488 34.3638 38.4263 34.3638C34.4388 34.3638 31.3763 33.3163 29.2388 31.2213C27.1138 29.1129 26.0512 26.1075 26.0512 22.205C26.0512 18.3909 27.1421 15.4146 29.3237 13.2763C31.5054 11.1379 34.5396 10.0688 38.4263 10.0688C42.2404 10.0688 45.1662 11.1959 47.2037 13.45C49.2412 15.6892 50.3246 18.9809 50.4538 23.325V23.31ZM54.0087 33.7225V31.1H57.2813V13.3075H54.0087V10.685H64.9538V13.935C65.8704 12.5625 66.9246 11.5729 68.1163 10.9663C69.3013 10.3596 70.8012 10.0563 72.6162 10.0563C75.2021 10.0563 77.1521 10.8221 78.4662 12.3538C79.7954 13.8704 80.46 16.11 80.46 19.0725V31.1013H83.7538V33.7225H70.0038V31.1H72.8V18.855C72.8 16.905 72.5471 15.5542 72.0412 14.8025C71.5412 14.0359 70.6817 13.6525 69.4625 13.6525C67.9167 13.6525 66.7825 14.2234 66.06 15.365C65.3375 16.4917 64.9762 18.2904 64.9762 20.7613V31.0988H67.7937V33.7238H54.0087V33.7225ZM100.105 33.7225H86.255V31.1H89.5275V2.60002H86.255V1.90735e-05H97.2V21.6513L106.497 13.3075H103.745V10.685H114.245V13.3075H109.975L104.037 18.6388L113.746 31.1013H116.239V33.7225H103.019V31.1H105.728L99.3337 22.8863L97.1887 24.7938V31.1013H100.093V33.7225H100.105ZM119.589 4.16002C119.589 2.99002 119.993 2.00752 120.801 1.21252C121.61 0.404183 122.599 1.90735e-05 123.77 1.90735e-05C124.912 1.90735e-05 125.88 0.404183 126.674 1.21252C127.482 2.00752 127.886 2.99002 127.886 4.16002C127.886 5.30168 127.482 6.27668 126.674 7.08502C125.879 7.88002 124.911 8.27752 123.77 8.27752C122.6 8.27752 121.61 7.88002 120.801 7.08502C119.993 6.29002 119.589 5.31502 119.589 4.16002ZM127.964 31.0975H131.257V33.7225H117.008V31.1H120.28V13.3075H117.008V10.685H127.952V31.1013L127.964 31.0975ZM133.934 33.7225V31.1H137.206V13.3075H133.934V10.685H144.879V13.935C145.795 12.5625 146.85 11.5729 148.041 10.9663C149.226 10.3596 150.726 10.0563 152.541 10.0563C155.127 10.0563 157.077 10.8221 158.391 12.3538C159.72 13.8704 160.385 16.11 160.385 19.0725V31.1013H163.679V33.7225H149.929V31.1H152.725V18.855C152.725 16.905 152.472 15.5542 151.966 14.8025C151.466 14.0359 150.607 13.6525 149.387 13.6525C147.842 13.6525 146.707 14.2234 145.985 15.365C145.262 16.4917 144.901 18.2904 144.901 20.7613V31.0988H147.719V33.7238H133.969L133.934 33.7225ZM166.746 33.05V26.6125H169.196C169.399 28.3317 170.042 29.6463 171.125 30.5563C172.208 31.4521 173.682 31.9 175.546 31.9C177.106 31.9 178.298 31.6334 179.121 31.1C179.96 30.55 180.379 29.77 180.379 28.76C180.379 27.8434 180.112 27.1283 179.579 26.615C179.059 26.1092 178.04 25.6684 176.523 25.2925L173.36 24.4925C170.977 23.9092 169.25 23.0634 168.18 21.955C167.111 20.8425 166.576 19.3425 166.576 17.455C166.576 14.955 167.443 13.0984 169.176 11.885C170.91 10.6567 173.582 10.0425 177.195 10.0425C178.553 10.0425 179.998 10.1579 181.53 10.3888C183.076 10.6054 184.781 10.9521 186.645 11.4288V17.2513H184.195C184.065 15.6679 183.502 14.4834 182.505 13.6975C181.522 12.9025 180.106 12.505 178.258 12.505C176.698 12.505 175.513 12.7579 174.704 13.2638C173.909 13.7638 173.511 14.4863 173.511 15.4313C173.511 16.2113 173.742 16.8254 174.205 17.2738C174.667 17.7213 175.498 18.0971 176.698 18.4013L179.84 19.2013C182.86 19.9679 184.943 20.9138 186.09 22.0388C187.246 23.1654 187.824 24.7329 187.824 26.7413C187.824 29.3413 186.892 31.2629 185.027 32.5063C183.177 33.7346 180.295 34.3488 176.38 34.3488C174.95 34.3488 173.433 34.2404 171.83 34.0238C170.227 33.8071 168.529 33.4821 166.737 33.0488L166.746 33.05Z" fill="white"/>
</svg>
