<svg width="558.63" height="134" viewBox="0 0 292 70" fill="none" xmlns="http://www.w3.org/2000/svg">
<path d="M67.0992 0H33.3992C33.3992 8.4 40.1992 15.2 48.599 15.2H54.7989V21.2C54.7989 29.6 61.5988 36.3999 69.9988 36.3999V2.90008C69.9991 1.30006 68.699 0 67.0992 0V0Z" fill="white"/>
<path d="M50.3995 16.7999H16.6995C16.6995 25.1999 23.4994 31.9998 31.8994 31.9998H38.0994V37.9999C38.0994 46.3999 44.8996 53.1998 53.2996 53.1998V19.7C53.2996 18.0998 51.9993 16.7999 50.3995 16.7999V16.7999Z" fill="white"/>
<path d="M33.7001 33.5999H0C0 41.9999 6.79998 48.7998 15.2 48.7998H21.3999V54.7999C21.3999 63.1999 28.2002 69.9999 36.6002 69.9999V36.5C36.6002 34.8998 35.3001 33.5999 33.7001 33.5999Z" fill="white"/>
<path d="M104.001 54.4813V49.3888H106.819C106.905 50.7471 107.223 51.7442 107.772 52.38C108.336 53.0159 109.167 53.3338 110.265 53.3338C111.667 53.3338 112.642 52.7921 113.19 51.7088C113.753 50.6396 114.035 48.6242 114.035 45.6625V16.9875H109.334V14.365H126.564V16.99H122.421V45.8338C122.421 49.3446 121.533 51.9092 119.755 53.5275C117.993 55.1459 115.183 55.955 111.325 55.955C110.125 55.955 108.919 55.8321 107.706 55.5863C106.493 55.3404 105.258 54.9721 104 54.4813H104.001ZM146.024 33.7313C146.024 30.6979 145.742 28.5742 145.179 27.36C144.615 26.1317 143.655 25.5175 142.296 25.5175C140.981 25.5175 140.035 26.1175 139.459 27.3175C138.895 28.5175 138.614 30.5259 138.614 33.3425V33.7325H146.026L146.024 33.7313ZM154.454 36.31H138.611V36.485C138.611 39.4617 139.059 41.6146 139.955 42.9438C140.851 44.2588 142.296 44.9163 144.29 44.9163C145.952 44.9163 147.295 44.4754 148.321 43.5938C149.346 42.7121 150.004 41.4329 150.294 39.7563H153.891C153.27 42.3713 152.034 44.2929 150.185 45.5213C148.335 46.7496 145.749 47.3638 142.426 47.3638C138.439 47.3638 135.376 46.3163 133.239 44.2213C131.114 42.1129 130.051 39.1075 130.051 35.205C130.051 31.3909 131.142 28.4146 133.324 26.2763C135.505 24.1379 138.54 23.0688 142.426 23.0688C146.24 23.0688 149.166 24.1959 151.204 26.45C153.241 28.6892 154.325 31.9809 154.454 36.325V36.31ZM158.009 46.7225V44.1H161.281V26.3075H158.009V23.685H168.954V26.935C169.87 25.5625 170.925 24.5729 172.116 23.9663C173.301 23.3596 174.801 23.0563 176.616 23.0563C179.202 23.0563 181.152 23.8221 182.466 25.3538C183.795 26.8704 184.46 29.11 184.46 32.0725V44.1013H187.754V46.7225H174.004V44.1H176.8V31.855C176.8 29.905 176.547 28.5542 176.041 27.8025C175.541 27.0359 174.682 26.6525 173.462 26.6525C171.917 26.6525 170.782 27.2234 170.06 28.365C169.337 29.4917 168.976 31.2904 168.976 33.7613V44.0988H171.794V46.7238H158.009V46.7225ZM204.105 46.7225H190.255V44.1H193.527V15.6H190.255V13H201.2V34.6513L210.497 26.3075H207.745V23.685H218.245V26.3075H213.975L208.037 31.6388L217.746 44.1013H220.239V46.7225H207.019V44.1H209.728L203.334 35.8863L201.189 37.7938V44.1013H204.093V46.7225H204.105ZM223.589 17.16C223.589 15.99 223.993 15.0075 224.801 14.2125C225.61 13.4042 226.599 13 227.77 13C228.912 13 229.88 13.4042 230.674 14.2125C231.482 15.0075 231.886 15.99 231.886 17.16C231.886 18.3017 231.482 19.2767 230.674 20.085C229.879 20.88 228.911 21.2775 227.77 21.2775C226.6 21.2775 225.61 20.88 224.801 20.085C223.993 19.29 223.589 18.315 223.589 17.16ZM231.964 44.0975H235.257V46.7225H221.008V44.1H224.28V26.3075H221.008V23.685H231.952V44.1013L231.964 44.0975ZM237.934 46.7225V44.1H241.206V26.3075H237.934V23.685H248.879V26.935C249.795 25.5625 250.85 24.5729 252.041 23.9663C253.226 23.3596 254.726 23.0563 256.541 23.0563C259.127 23.0563 261.077 23.8221 262.391 25.3538C263.72 26.8704 264.385 29.11 264.385 32.0725V44.1013H267.679V46.7225H253.929V44.1H256.725V31.855C256.725 29.905 256.472 28.5542 255.966 27.8025C255.466 27.0359 254.607 26.6525 253.387 26.6525C251.842 26.6525 250.707 27.2234 249.985 28.365C249.262 29.4917 248.901 31.2904 248.901 33.7613V44.0988H251.719V46.7238H237.969L237.934 46.7225ZM270.746 46.05V39.6125H273.196C273.399 41.3317 274.042 42.6463 275.125 43.5563C276.208 44.4521 277.682 44.9 279.546 44.9C281.106 44.9 282.298 44.6334 283.121 44.1C283.96 43.55 284.379 42.77 284.379 41.76C284.379 40.8434 284.112 40.1283 283.579 39.615C283.059 39.1092 282.04 38.6684 280.523 38.2925L277.36 37.4925C274.977 36.9092 273.25 36.0634 272.18 34.955C271.111 33.8425 270.576 32.3425 270.576 30.455C270.576 27.955 271.443 26.0984 273.176 24.885C274.91 23.6567 277.582 23.0425 281.195 23.0425C282.553 23.0425 283.998 23.1579 285.53 23.3888C287.076 23.6054 288.781 23.9521 290.645 24.4288V30.2513H288.195C288.065 28.6679 287.502 27.4834 286.505 26.6975C285.522 25.9025 284.106 25.505 282.258 25.505C280.698 25.505 279.513 25.7579 278.704 26.2638C277.909 26.7638 277.511 27.4863 277.511 28.4313C277.511 29.2113 277.742 29.8254 278.205 30.2738C278.667 30.7213 279.498 31.0971 280.698 31.4013L283.84 32.2013C286.86 32.9679 288.943 33.9138 290.09 35.0388C291.246 36.1654 291.824 37.7329 291.824 39.7413C291.824 42.3413 290.892 44.2629 289.027 45.5063C287.177 46.7346 284.295 47.3488 280.38 47.3488C278.95 47.3488 277.433 47.2404 275.83 47.0238C274.227 46.8071 272.529 46.4821 270.737 46.0488L270.746 46.05Z" fill="white"/>
</svg>
