<svg width="70" height="70" viewBox="0 0 70 70" fill="none" xmlns="http://www.w3.org/2000/svg">
<path d="M67.0992 0H33.3992C33.3992 8.4 40.1992 15.2 48.599 15.2H54.7989V21.2C54.7989 29.6 61.5988 36.3999 69.9988 36.3999V2.90008C69.9991 1.30006 68.699 0 67.0992 0V0Z" fill="white"/>
<path d="M50.3995 16.7999H16.6995C16.6995 25.1999 23.4994 31.9998 31.8994 31.9998H38.0994V37.9999C38.0994 46.3999 44.8996 53.1998 53.2996 53.1998V19.7C53.2996 18.0998 51.9993 16.7999 50.3995 16.7999V16.7999Z" fill="white"/>
<path d="M33.7001 33.5999H0C0 41.9999 6.79998 48.7998 15.2 48.7998H21.3999V54.7999C21.3999 63.1999 28.2002 69.9999 36.6002 69.9999V36.5C36.6002 34.8998 35.3001 33.5999 33.7001 33.5999Z" fill="white"/>
</svg>
