<svg width="156" height="31" viewBox="0 0 156 31" fill="none" xmlns="http://www.w3.org/2000/svg">
<path d="M19.3612 8.75L12 21.5L4.63878 8.75L19.3612 8.75Z" stroke="white" stroke-width="1.5"/>
<path d="M28.2635 10.3438V8.45455H39.5206V10.3438H34.9822V23H32.7947V10.3438H28.2635ZM44.9574 23.2202C43.8826 23.2202 42.9569 22.9905 42.1804 22.5312C41.4086 22.0672 40.812 21.4162 40.3906 20.5781C39.974 19.7353 39.7656 18.7481 39.7656 17.6165C39.7656 16.4991 39.974 15.5142 40.3906 14.6619C40.812 13.8097 41.3991 13.1444 42.152 12.6662C42.9096 12.188 43.795 11.9489 44.8082 11.9489C45.4238 11.9489 46.0204 12.0507 46.598 12.2543C47.1757 12.4579 47.6941 12.7775 48.1534 13.2131C48.6127 13.6487 48.9749 14.2145 49.2401 14.9105C49.5052 15.6018 49.6378 16.4422 49.6378 17.4318V18.1847H40.9659V16.5938H47.5568C47.5568 16.035 47.4432 15.5402 47.2159 15.1094C46.9886 14.6738 46.669 14.3305 46.2571 14.0795C45.8499 13.8286 45.3717 13.7031 44.8224 13.7031C44.2259 13.7031 43.705 13.8499 43.2599 14.1435C42.8196 14.4323 42.4787 14.8111 42.2372 15.2798C42.0005 15.7438 41.8821 16.2481 41.8821 16.7926V18.0355C41.8821 18.7647 42.0099 19.3849 42.2656 19.8963C42.526 20.4077 42.8883 20.7983 43.3523 21.0682C43.8163 21.3333 44.3584 21.4659 44.9787 21.4659C45.3812 21.4659 45.7481 21.4091 46.0795 21.2955C46.411 21.1771 46.6974 21.0019 46.9389 20.7699C47.1804 20.5379 47.3651 20.2514 47.4929 19.9105L49.5028 20.2727C49.3419 20.8646 49.053 21.383 48.6364 21.8281C48.2244 22.2685 47.706 22.6117 47.081 22.858C46.4607 23.0994 45.7528 23.2202 44.9574 23.2202ZM60.1687 14.7543L58.244 15.0952C58.1635 14.849 58.0356 14.6146 57.8604 14.392C57.69 14.1695 57.458 13.9872 57.1644 13.8452C56.8709 13.7031 56.5039 13.6321 56.0636 13.6321C55.4622 13.6321 54.9603 13.767 54.5579 14.0369C54.1554 14.3021 53.9542 14.6454 53.9542 15.0668C53.9542 15.4313 54.0891 15.7249 54.359 15.9474C54.6289 16.17 55.0645 16.3523 55.6658 16.4943L57.3988 16.892C58.4026 17.1241 59.1507 17.4815 59.6431 17.9645C60.1355 18.4474 60.3817 19.0748 60.3817 19.8466C60.3817 20.5 60.1924 21.0824 59.8136 21.5938C59.4395 22.1004 58.9163 22.4981 58.244 22.7869C57.5763 23.0758 56.8022 23.2202 55.9215 23.2202C54.6999 23.2202 53.7032 22.9598 52.9315 22.4389C52.1597 21.9134 51.6862 21.1676 51.511 20.2017L53.5636 19.8892C53.6914 20.4242 53.9542 20.8291 54.3519 21.1037C54.7496 21.3736 55.2681 21.5085 55.9073 21.5085C56.6033 21.5085 57.1597 21.3641 57.5763 21.0753C57.993 20.7817 58.2013 20.4242 58.2013 20.0028C58.2013 19.6619 58.0735 19.3755 57.8178 19.1435C57.5669 18.9115 57.181 18.7363 56.6602 18.6179L54.8136 18.2131C53.7956 17.9811 53.0427 17.6117 52.555 17.1051C52.0721 16.5985 51.8306 15.9569 51.8306 15.1804C51.8306 14.5365 52.0105 13.973 52.3704 13.4901C52.7302 13.0071 53.2274 12.6307 53.8619 12.3608C54.4963 12.0862 55.2231 11.9489 56.0423 11.9489C57.2212 11.9489 58.1493 12.2045 58.8263 12.7159C59.5034 13.2225 59.9509 13.902 60.1687 14.7543ZM67.8089 12.0909V13.7955H61.8501V12.0909H67.8089ZM63.4482 9.47727H65.5717V19.7969C65.5717 20.2088 65.6333 20.5189 65.7564 20.7273C65.8795 20.9309 66.0381 21.0705 66.2322 21.1463C66.4311 21.2173 66.6465 21.2528 66.8786 21.2528C67.049 21.2528 67.1982 21.241 67.326 21.2173C67.4538 21.1937 67.5533 21.1747 67.6243 21.1605L68.0078 22.9148C67.8847 22.9621 67.7095 23.0095 67.4822 23.0568C67.255 23.1089 66.9709 23.1373 66.63 23.142C66.0713 23.1515 65.5504 23.0521 65.0675 22.8438C64.5845 22.6354 64.1939 22.3134 63.8956 21.8778C63.5973 21.4422 63.4482 20.8954 63.4482 20.2372V9.47727ZM78.2617 12.2756C78.186 11.6032 77.8735 11.0824 77.3242 10.7131C76.775 10.339 76.0837 10.152 75.2504 10.152C74.6538 10.152 74.1377 10.2467 73.7021 10.4361C73.2665 10.6207 72.9279 10.8764 72.6864 11.2031C72.4497 11.5251 72.3313 11.892 72.3313 12.304C72.3313 12.6496 72.4118 12.9479 72.5728 13.1989C72.7385 13.4498 72.954 13.6605 73.2191 13.831C73.489 13.9967 73.7778 14.1364 74.0856 14.25C74.3933 14.3589 74.6893 14.4489 74.9734 14.5199L76.3938 14.8892C76.8578 15.0028 77.3337 15.1567 77.8214 15.3509C78.3091 15.545 78.7612 15.8007 79.1779 16.1179C79.5946 16.4351 79.9308 16.8281 80.1864 17.2969C80.4469 17.7656 80.5771 18.3267 80.5771 18.9801C80.5771 19.804 80.364 20.5355 79.9379 21.1747C79.5165 21.8139 78.9033 22.3182 78.0984 22.6875C77.2982 23.0568 76.3299 23.2415 75.1935 23.2415C74.1045 23.2415 73.1623 23.0687 72.3668 22.723C71.5714 22.3774 70.9487 21.8873 70.4989 21.2528C70.0491 20.6136 69.8005 19.8561 69.7532 18.9801H71.9549C71.9975 19.5057 72.168 19.9437 72.4663 20.294C72.7693 20.6397 73.1552 20.8977 73.6239 21.0682C74.0974 21.2339 74.6159 21.3168 75.1793 21.3168C75.7996 21.3168 76.3512 21.2197 76.8342 21.0256C77.3219 20.8267 77.7054 20.5521 77.9847 20.2017C78.2641 19.8466 78.4038 19.4323 78.4038 18.9588C78.4038 18.5279 78.2807 18.1752 78.0344 17.9006C77.793 17.6259 77.4639 17.3987 77.0472 17.2188C76.6353 17.0388 76.1689 16.8802 75.6481 16.7429L73.9293 16.2741C72.7646 15.9569 71.8413 15.4905 71.1594 14.875C70.4824 14.2595 70.1438 13.4451 70.1438 12.4318C70.1438 11.5937 70.3711 10.8622 70.8256 10.2372C71.2802 9.61222 71.8957 9.12689 72.6722 8.78125C73.4487 8.43087 74.3247 8.25568 75.3001 8.25568C76.2849 8.25568 77.1538 8.4285 77.9066 8.77415C78.6642 9.11979 79.2608 9.59564 79.6964 10.2017C80.132 10.803 80.3593 11.4943 80.3782 12.2756H78.2617ZM86.2038 23.2415C85.5125 23.2415 84.8875 23.1136 84.3288 22.858C83.7701 22.5975 83.3274 22.2211 83.0007 21.7287C82.6787 21.2363 82.5178 20.6326 82.5178 19.9176C82.5178 19.3021 82.6361 18.7955 82.8729 18.3977C83.1096 18 83.4292 17.6851 83.8317 17.4531C84.2341 17.2211 84.6839 17.0459 85.1811 16.9276C85.6783 16.8092 86.1849 16.7192 86.701 16.6577C87.3544 16.5819 87.8847 16.5204 88.2919 16.473C88.6991 16.4209 88.995 16.3381 89.1797 16.2244C89.3643 16.1108 89.4567 15.9261 89.4567 15.6705V15.6207C89.4567 15.0005 89.2815 14.5199 88.9311 14.179C88.5855 13.8381 88.0694 13.6676 87.3828 13.6676C86.6679 13.6676 86.1044 13.8262 85.6925 14.1435C85.2853 14.456 85.0036 14.804 84.8473 15.1875L82.8516 14.733C83.0883 14.0701 83.4339 13.535 83.8885 13.1278C84.3478 12.7159 84.8757 12.4176 85.4723 12.233C86.0689 12.0436 86.6963 11.9489 87.3544 11.9489C87.79 11.9489 88.2517 12.0009 88.7393 12.1051C89.2318 12.2045 89.6911 12.3892 90.1172 12.6591C90.5481 12.929 90.9008 13.3149 91.1754 13.8168C91.45 14.3139 91.5874 14.9602 91.5874 15.7557V23H89.5135V21.5085H89.4283C89.291 21.7831 89.085 22.053 88.8104 22.3182C88.5357 22.5833 88.183 22.8035 87.7521 22.9787C87.3213 23.1539 86.8052 23.2415 86.2038 23.2415ZM86.6655 21.5369C87.2526 21.5369 87.7545 21.4209 88.1712 21.1889C88.5926 20.9569 88.9122 20.6539 89.13 20.2798C89.3525 19.901 89.4638 19.4962 89.4638 19.0653V17.6591C89.388 17.7348 89.2412 17.8059 89.0234 17.8722C88.8104 17.9337 88.5665 17.9882 88.2919 18.0355C88.0173 18.0781 87.7498 18.1184 87.4893 18.1562C87.2289 18.1894 87.0111 18.2178 86.8359 18.2415C86.424 18.2936 86.0476 18.3812 85.7067 18.5043C85.3705 18.6274 85.1006 18.8049 84.897 19.0369C84.6982 19.2642 84.5987 19.5672 84.5987 19.946C84.5987 20.4716 84.7929 20.8693 85.1811 21.1392C85.5694 21.4044 86.0642 21.5369 86.6655 21.5369ZM96.5394 16.5227V23H94.4158V12.0909H96.4542V13.8665H96.5891C96.8401 13.2888 97.2331 12.8248 97.7681 12.4744C98.3079 12.1241 98.9873 11.9489 99.8065 11.9489C100.55 11.9489 101.201 12.1051 101.76 12.4176C102.318 12.7254 102.752 13.1847 103.059 13.7955C103.367 14.4062 103.521 15.1615 103.521 16.0611V23H101.397V16.3168C101.397 15.526 101.191 14.9081 100.779 14.4631C100.368 14.0133 99.8017 13.7884 99.082 13.7884C98.5896 13.7884 98.1516 13.8949 97.7681 14.108C97.3893 14.321 97.0887 14.6335 96.8661 15.0455C96.6483 15.4527 96.5394 15.9451 96.5394 16.5227ZM110.453 23.2131C109.572 23.2131 108.786 22.9882 108.095 22.5384C107.408 22.0838 106.868 21.4375 106.475 20.5994C106.087 19.7566 105.893 18.7457 105.893 17.5668C105.893 16.3878 106.09 15.3793 106.483 14.5412C106.88 13.7031 107.425 13.0616 108.116 12.6165C108.807 12.1714 109.591 11.9489 110.467 11.9489C111.144 11.9489 111.689 12.0625 112.1 12.2898C112.517 12.5123 112.839 12.7727 113.066 13.071C113.298 13.3693 113.478 13.6321 113.606 13.8594H113.734V8.45455H115.858V23H113.784V21.3026H113.606C113.478 21.5346 113.294 21.7997 113.052 22.098C112.815 22.3963 112.489 22.6567 112.072 22.8793C111.655 23.1018 111.116 23.2131 110.453 23.2131ZM110.922 21.402C111.532 21.402 112.048 21.241 112.47 20.919C112.896 20.5923 113.218 20.1402 113.436 19.5625C113.658 18.9848 113.77 18.3125 113.77 17.5455C113.77 16.7879 113.661 16.125 113.443 15.5568C113.225 14.9886 112.905 14.5459 112.484 14.2287C112.063 13.9115 111.542 13.7528 110.922 13.7528C110.282 13.7528 109.75 13.9186 109.324 14.25C108.897 14.5814 108.575 15.0336 108.358 15.6065C108.145 16.1795 108.038 16.8258 108.038 17.5455C108.038 18.2746 108.147 18.9304 108.365 19.5128C108.583 20.0952 108.904 20.5568 109.331 20.8977C109.761 21.2339 110.292 21.402 110.922 21.402ZM119.059 23V8.45455H121.183V13.8594H121.31C121.433 13.6321 121.611 13.3693 121.843 13.071C122.075 12.7727 122.397 12.5123 122.809 12.2898C123.221 12.0625 123.765 11.9489 124.442 11.9489C125.323 11.9489 126.109 12.1714 126.8 12.6165C127.492 13.0616 128.034 13.7031 128.427 14.5412C128.825 15.3793 129.023 16.3878 129.023 17.5668C129.023 18.7457 128.827 19.7566 128.434 20.5994C128.041 21.4375 127.501 22.0838 126.815 22.5384C126.128 22.9882 125.344 23.2131 124.464 23.2131C123.801 23.2131 123.259 23.1018 122.837 22.8793C122.421 22.6567 122.094 22.3963 121.857 22.098C121.621 21.7997 121.438 21.5346 121.31 21.3026H121.133V23H119.059ZM121.14 17.5455C121.14 18.3125 121.251 18.9848 121.474 19.5625C121.696 20.1402 122.018 20.5923 122.44 20.919C122.861 21.241 123.377 21.402 123.988 21.402C124.622 21.402 125.153 21.2339 125.579 20.8977C126.005 20.5568 126.327 20.0952 126.545 19.5128C126.767 18.9304 126.879 18.2746 126.879 17.5455C126.879 16.8258 126.77 16.1795 126.552 15.6065C126.339 15.0336 126.017 14.5814 125.586 14.25C125.16 13.9186 124.627 13.7528 123.988 13.7528C123.372 13.7528 122.852 13.9115 122.425 14.2287C122.004 14.5459 121.684 14.9886 121.467 15.5568C121.249 16.125 121.14 16.7879 121.14 17.5455ZM136.003 23.2202C134.98 23.2202 134.088 22.9858 133.326 22.517C132.563 22.0483 131.971 21.3925 131.55 20.5497C131.129 19.7069 130.918 18.7221 130.918 17.5952C130.918 16.4635 131.129 15.474 131.55 14.6264C131.971 13.7789 132.563 13.1207 133.326 12.652C134.088 12.1832 134.98 11.9489 136.003 11.9489C137.026 11.9489 137.918 12.1832 138.681 12.652C139.443 13.1207 140.035 13.7789 140.456 14.6264C140.878 15.474 141.088 16.4635 141.088 17.5952C141.088 18.7221 140.878 19.7069 140.456 20.5497C140.035 21.3925 139.443 22.0483 138.681 22.517C137.918 22.9858 137.026 23.2202 136.003 23.2202ZM136.01 21.4375C136.673 21.4375 137.222 21.2623 137.658 20.9119C138.094 20.5616 138.416 20.0952 138.624 19.5128C138.837 18.9304 138.944 18.2888 138.944 17.5881C138.944 16.892 138.837 16.2528 138.624 15.6705C138.416 15.0833 138.094 14.6122 137.658 14.2571C137.222 13.902 136.673 13.7244 136.01 13.7244C135.343 13.7244 134.789 13.902 134.348 14.2571C133.913 14.6122 133.588 15.0833 133.375 15.6705C133.167 16.2528 133.063 16.892 133.063 17.5881C133.063 18.2888 133.167 18.9304 133.375 19.5128C133.588 20.0952 133.913 20.5616 134.348 20.9119C134.789 21.2623 135.343 21.4375 136.01 21.4375ZM144.705 12.0909L147.113 16.3381L149.542 12.0909H151.864L148.462 17.5455L151.893 23H149.57L147.113 18.9233L144.663 23H142.333L145.728 17.5455L142.376 12.0909H144.705Z" fill="white"/>
</svg>
