<svg width="65" height="69" viewBox="0 0 65 69" fill="none" xmlns="http://www.w3.org/2000/svg">
<path d="M1.04537 11.7523L11.7522 1.04539C12.0837 0.713961 12.4771 0.451057 12.9101 0.271688C13.3431 0.0923199 13.8072 0 14.2759 0C14.7446 0 15.2088 0.0923199 15.6418 0.271688C16.0748 0.451057 16.4682 0.713961 16.7996 1.04539L27.5065 11.7523C28.1758 12.4216 28.5519 13.3294 28.5519 14.276C28.5519 15.2225 28.1758 16.1303 27.5065 16.7997C26.8372 17.469 25.9294 17.845 24.9828 17.845C24.0363 17.845 23.1284 17.469 22.4591 16.7997L17.8449 12.1853V25.0393C17.8379 27.1642 18.4714 29.2419 19.6628 31.0013C20.8541 32.7608 22.5481 34.1204 24.5236 34.9029C27.5423 36.1068 30.1709 38.1193 32.1207 40.7193C34.0706 38.1192 36.6992 36.1068 39.718 34.9029C41.6935 34.1204 43.3874 32.7608 44.5788 31.0013C45.7701 29.2418 46.4036 27.1642 46.3966 25.0393V12.1853L41.7824 16.7997C41.113 17.469 40.2052 17.845 39.2587 17.845C38.3121 17.845 37.4043 17.469 36.735 16.7997C36.0656 16.1303 35.6896 15.2225 35.6896 14.276C35.6896 13.3294 36.0656 12.4216 36.735 11.7523L47.4418 1.04539C47.7732 0.713961 48.1667 0.451057 48.5997 0.271688C49.0327 0.0923199 49.4968 0 49.9655 0C50.4342 0 50.8983 0.0923199 51.3314 0.271688C51.7644 0.451057 52.1578 0.713961 52.4892 1.04539L63.1961 11.7523C63.8654 12.4216 64.2415 13.3294 64.2415 14.276C64.2415 15.2225 63.8654 16.1303 63.1961 16.7997C62.5268 17.469 61.619 17.845 60.6724 17.845C59.7258 17.845 58.818 17.469 58.1487 16.7997L53.5345 12.1853V25.0393C53.5346 28.5894 52.4709 32.0579 50.4805 34.9975C48.4902 37.9371 45.6646 40.2128 42.3684 41.5309C40.393 42.3134 38.6991 43.673 37.5078 45.4324C36.3164 47.1917 35.6829 49.2693 35.6897 51.394V65.431C35.6897 66.3776 35.3137 67.2854 34.6444 67.9547C33.9751 68.624 33.0673 69 32.1207 69C31.1742 69 30.2664 68.624 29.5971 67.9547C28.9278 67.2854 28.5518 66.3776 28.5518 65.431V51.394C28.5586 49.2692 27.925 47.1917 26.7337 45.4322C25.5424 43.6728 23.8486 42.3131 21.8732 41.5305C18.577 40.2124 15.7514 37.9368 13.7611 34.9973C11.7707 32.0578 10.7069 28.5893 10.707 25.0393V12.1853L6.09277 16.7997C5.42345 17.469 4.51564 17.845 3.56907 17.845C2.6225 17.845 1.7147 17.469 1.04537 16.7997C0.376044 16.1303 2.23213e-05 15.2225 2.23213e-05 14.276C2.23213e-05 13.3294 0.376044 12.4216 1.04537 11.7523V11.7523Z" fill="white"/>
</svg>
