<svg width="57" height="75" viewBox="0 0 57 75" fill="none" xmlns="http://www.w3.org/2000/svg">
<path d="M49.2188 28.125H46.875V18.75C46.875 8.40912 38.4659 0 28.125 0C17.7841 0 9.375 8.40912 9.375 18.75V28.125H7.03125C3.15628 28.125 0 31.2778 0 35.1562V67.9688C0 71.8472 3.15628 75 7.03125 75H49.2188C53.0937 75 56.25 71.8472 56.25 67.9688V35.1562C56.25 31.2778 53.0937 28.125 49.2188 28.125ZM15.6252 18.75C15.6252 11.8561 21.2311 6.25019 28.125 6.25019C35.0189 6.25019 40.6248 11.8561 40.6248 18.75V28.125H15.6252V18.75Z" fill="white"/>
</svg>
