<svg width="59" height="70" viewBox="0 0 59 70" fill="none" xmlns="http://www.w3.org/2000/svg">
<path d="M51.0417 70H7.29167C3.2725 70 0 66.7275 0 62.7083V7.29167C0 3.2725 3.2725 0 7.29167 0H51.0417C55.0608 0 58.3333 3.2725 58.3333 7.29167V62.7083C58.3333 66.7275 55.0608 70 51.0417 70ZM7.29167 2.91667C4.87958 2.91667 2.91667 4.87958 2.91667 7.29167V62.7083C2.91667 65.1204 4.87958 67.0833 7.29167 67.0833H51.0417C53.4538 67.0833 55.4167 65.1204 55.4167 62.7083V7.29167C55.4167 4.87958 53.4538 2.91667 51.0417 2.91667H7.29167Z" fill="white"/>
<path d="M48.1249 35H42.2916C41.4866 35 40.8333 34.3467 40.8333 33.5417C40.8333 32.7367 41.4866 32.0834 42.2916 32.0834H48.1249C48.9299 32.0834 49.5833 32.7367 49.5833 33.5417C49.5833 34.3467 48.9299 35 48.1249 35Z" fill="white"/>
<path d="M48.1249 26.25H42.2916C41.4866 26.25 40.8333 25.5967 40.8333 24.7917C40.8333 23.9867 41.4866 23.3334 42.2916 23.3334H48.1249C48.9299 23.3334 49.5833 23.9867 49.5833 24.7917C49.5833 25.5967 48.9299 26.25 48.1249 26.25Z" fill="white"/>
<path d="M48.1249 43.7499H42.2916C41.4866 43.7499 40.8333 43.0966 40.8333 42.2916C40.8333 41.4866 41.4866 40.8333 42.2916 40.8333H48.1249C48.9299 40.8333 49.5833 41.4866 49.5833 42.2916C49.5833 43.0966 48.9299 43.7499 48.1249 43.7499Z" fill="white"/>
<path d="M48.1249 52.5H42.2916C41.4866 52.5 40.8333 51.8466 40.8333 51.0416C40.8333 50.2366 41.4866 49.5833 42.2916 49.5833H48.1249C48.9299 49.5833 49.5833 50.2366 49.5833 51.0416C49.5833 51.8466 48.9299 52.5 48.1249 52.5Z" fill="white"/>
<path d="M48.125 61.25H10.2083C9.40333 61.25 8.75 60.5966 8.75 59.7916C8.75 58.9866 9.40333 58.3333 10.2083 58.3333H48.125C48.93 58.3333 49.5833 58.9866 49.5833 59.7916C49.5833 60.5966 48.93 61.25 48.125 61.25Z" fill="white"/>
<path d="M23.3333 52.5C15.2921 52.5 8.75 45.958 8.75 37.9167C8.75 29.8755 15.2921 23.3334 23.3333 23.3334C31.3746 23.3334 37.9167 29.8755 37.9167 37.9167C37.9167 45.958 31.3746 52.5 23.3333 52.5ZM23.3333 26.25C16.8992 26.25 11.6667 31.4825 11.6667 37.9167C11.6667 44.3509 16.8992 49.5834 23.3333 49.5834C29.7675 49.5834 35 44.3509 35 37.9167C35 31.4825 29.7675 26.25 23.3333 26.25Z" fill="white"/>
<path d="M14.0526 48.6559C13.6792 48.6559 13.3059 48.513 13.0201 48.23C12.4513 47.6613 12.4513 46.7367 13.0201 46.168L21.8751 37.313V24.7917C21.8751 23.9867 22.5284 23.3334 23.3334 23.3334C24.1384 23.3334 24.7917 23.9867 24.7917 24.7917V37.9167C24.7917 38.3046 24.6372 38.675 24.3659 38.9492L15.0851 48.23C14.7992 48.513 14.4259 48.6559 14.0526 48.6559V48.6559Z" fill="white"/>
</svg>
