<svg width="74" height="74" viewBox="0 0 74 74" fill="none" xmlns="http://www.w3.org/2000/svg">
<path d="M65.3281 0H8.67188C3.8902 0 0 3.8902 0 8.67188V65.3281C0 70.1098 3.8902 74 8.67188 74H65.3281C70.1098 74 74 70.1098 74 65.3281V8.67188C74 3.8902 70.1098 0 65.3281 0ZM68.2188 65.3281C68.2188 66.922 66.922 68.2188 65.3281 68.2188H8.67188C7.07798 68.2188 5.78125 66.922 5.78125 65.3281V8.67188C5.78125 7.07798 7.07798 5.78125 8.67188 5.78125H65.3281C66.922 5.78125 68.2188 7.07798 68.2188 8.67188V65.3281Z" fill="white"/>
<path d="M22.5469 22.5469C25.7347 22.5469 28.3281 25.1403 28.3281 28.3281H34.1094C34.1094 21.9526 28.9224 16.7656 22.5469 16.7656C16.1713 16.7656 10.9844 21.9526 10.9844 28.3281C10.9844 34.7037 16.1713 39.8906 22.5469 39.8906C25.7347 39.8906 28.3281 42.4841 28.3281 45.6719C28.3281 48.8597 25.7347 51.4531 22.5469 51.4531C19.3591 51.4531 16.7656 48.8597 16.7656 45.6719H10.9844C10.9844 52.0474 16.1713 57.2344 22.5469 57.2344C28.9224 57.2344 34.1094 52.0474 34.1094 45.6719C34.1094 39.2963 28.9224 34.1094 22.5469 34.1094C19.3591 34.1094 16.7656 31.5159 16.7656 28.3281C16.7656 25.1403 19.3591 22.5469 22.5469 22.5469Z" fill="white"/>
<path d="M51.4531 28.3281C48.0081 28.3281 44.9101 30.0809 42.7295 33.2636C40.9253 35.8968 39.8906 39.3658 39.8906 42.7812C39.8906 46.1897 40.9226 49.6547 42.7217 52.2875C44.9017 55.4776 48.0026 57.2344 51.4531 57.2344C54.6543 57.2344 57.7323 55.5785 59.8977 52.6915L55.2727 49.2227C54.6478 50.0558 53.3209 51.4531 51.4531 51.4531C48.7939 51.4531 46.8057 48.8013 46.0292 45.6719H63.0156V42.7812C63.0156 39.3728 61.9837 35.9078 60.1845 33.275C58.0046 30.0849 54.9037 28.3281 51.4531 28.3281ZM46.0292 39.8906C46.8057 36.7612 48.7939 34.1094 51.4531 34.1094C54.1124 34.1094 56.1005 36.7612 56.8771 39.8906H46.0292Z" fill="white"/>
</svg>
