<svg width="89" height="75" viewBox="0 0 89 75" fill="none" xmlns="http://www.w3.org/2000/svg">
<path d="M75.6513 40.491H68.8137C69.5107 42.3992 69.8914 44.4584 69.8914 46.6047V72.4469C69.8914 73.3418 69.7357 74.2007 69.4523 74.9995H80.7564C84.979 74.9995 88.4142 71.5642 88.4142 67.3417V53.2539C88.4144 46.2165 82.6889 40.491 75.6513 40.491Z" fill="#343434"/>
<path d="M18.523 46.605C18.523 44.4586 18.9037 42.3995 19.6007 40.4913H12.7631C5.72552 40.4913 0 46.2168 0 53.2544V67.3422C0 71.5646 3.43521 75 7.65785 75H18.9621C18.6787 74.2008 18.523 73.3421 18.523 72.4472V46.605V46.605Z" fill="#343434"/>
<path d="M52.023 33.8418H36.3913C29.3537 33.8418 23.6282 39.5673 23.6282 46.6049V72.4471C23.6282 73.8567 24.771 74.9997 26.1808 74.9997H62.2335C63.6432 74.9997 64.7861 73.8569 64.7861 72.4471V46.6049C64.7861 39.5673 59.0606 33.8418 52.023 33.8418Z" fill="white"/>
<path d="M44.2071 0C35.7435 0 28.8579 6.88561 28.8579 15.3494C28.8579 21.0903 32.0265 26.1042 36.7059 28.7365C38.9254 29.9851 41.4842 30.6986 44.2071 30.6986C46.93 30.6986 49.4888 29.9851 51.7083 28.7365C56.3879 26.1042 59.5563 21.0901 59.5563 15.3494C59.5563 6.88578 52.6707 0 44.2071 0Z" fill="white"/>
<path d="M17.2543 14.3068C10.9246 14.3068 5.77515 19.4562 5.77515 25.7859C5.77515 32.1157 10.9246 37.2651 17.2543 37.2651C18.8599 37.2651 20.3889 36.9325 21.7778 36.3347C24.1791 35.3008 26.1591 33.4707 27.3843 31.1784C28.2443 29.5695 28.7335 27.734 28.7335 25.7859C28.7335 19.4564 23.5841 14.3068 17.2543 14.3068Z" fill="#343434"/>
<path d="M71.1601 14.3068C64.8304 14.3068 59.6809 19.4562 59.6809 25.7859C59.6809 27.7342 60.1701 29.5696 61.0301 31.1784C62.2553 33.4709 64.2353 35.301 66.6366 36.3347C68.0255 36.9325 69.5545 37.2651 71.1601 37.2651C77.4898 37.2651 82.6393 32.1157 82.6393 25.7859C82.6393 19.4562 77.4898 14.3068 71.1601 14.3068Z" fill="#343434"/>
</svg>
