<svg width="67" height="67" viewBox="0 0 67 67" fill="none" xmlns="http://www.w3.org/2000/svg">
<path d="M38.9799 30.6035C38.3185 30.6035 37.6572 30.3517 37.1535 29.8466C33.1248 25.8179 26.5695 25.8166 22.5396 29.8466C21.5321 30.8554 19.8942 30.8554 18.8867 29.8466C17.8779 28.8378 17.8779 27.2026 18.8867 26.1938C24.9304 20.1488 34.7639 20.1501 40.8063 26.1938C41.8151 27.2026 41.8151 28.8378 40.8063 29.8466C40.3025 30.3517 39.6399 30.6035 38.9799 30.6035V30.6035Z" fill="white"/>
<path d="M37.1534 45.3401C33.1841 45.3401 29.2148 43.8289 26.1936 40.8077C25.1848 39.7989 25.1848 38.1636 26.1936 37.1548C27.2011 36.1461 28.8389 36.1461 29.8464 37.1548C33.8751 41.1836 40.4303 41.1848 44.4603 37.1548C45.4678 36.1461 47.1057 36.1461 48.1132 37.1548C49.122 38.1636 49.122 39.7989 48.1132 40.8077C45.0907 43.8289 41.1214 45.3401 37.1534 45.3401V45.3401Z" fill="white"/>
<path d="M46.2856 41.5633C45.6243 41.5633 44.963 41.3114 44.4592 40.8063C43.4504 39.7976 43.4504 38.1623 44.4592 37.1535L58.8897 22.723C59.8972 21.7142 61.5351 21.7142 62.5426 22.723C63.5513 23.7318 63.5513 25.3671 62.5426 26.3759L48.1121 40.8063C47.6083 41.3114 46.947 41.5633 46.2856 41.5633V41.5633Z" fill="white"/>
<path d="M24.5493 63.2993C23.888 63.2993 23.2267 63.0474 22.7229 62.5424C21.7141 61.5336 21.7141 59.8984 22.7229 58.8896L30.7894 50.8231C31.7969 49.8143 33.4347 49.8143 34.4422 50.8231C35.451 51.8319 35.451 53.4672 34.4422 54.476L26.3757 62.5424C25.872 63.0474 25.2106 63.2993 24.5493 63.2993Z" fill="white"/>
<path d="M6.28272 45.0326C5.62138 45.0326 4.96005 44.7807 4.4563 44.2756C3.44751 43.2668 3.44751 41.6316 4.4563 40.6228L18.8868 26.1936C19.8956 25.1848 21.5321 25.1848 22.5396 26.1936C23.5484 27.2024 23.5484 28.8376 22.5396 29.8464L8.10913 44.2756C7.60409 44.7794 6.94276 45.0326 6.28272 45.0326Z" fill="white"/>
<path d="M34.3828 16.9339C33.7215 16.9339 33.0614 16.682 32.5564 16.1783C31.5476 15.1695 31.5476 13.5342 32.5564 12.5242L40.6229 4.45642C41.6316 3.44763 43.2669 3.44763 44.277 4.45642C45.2858 5.46521 45.2858 7.10046 44.277 8.11054L36.2105 16.1783C35.7055 16.6807 35.0429 16.9339 34.3828 16.9339Z" fill="white"/>
<path d="M15.416 66.9987C11.4209 66.9987 7.42579 65.5133 4.45625 62.5424C-1.48542 56.6008 -1.48542 46.5632 4.45625 40.6216C5.46375 39.6128 7.10158 39.6128 8.10908 40.6216C9.11787 41.6304 9.11787 43.2656 8.10908 44.2744C4.14883 48.2347 4.14883 54.9281 8.10908 58.8883C12.0693 62.8486 18.7627 62.8486 22.723 58.8883C23.7305 57.8795 25.3683 57.8795 26.3758 58.8883C27.3846 59.8971 27.3846 61.5324 26.3758 62.5412C23.4063 65.5133 19.4112 66.9987 15.416 66.9987Z" fill="white"/>
<path d="M60.716 27.1329C60.0546 27.1329 59.3933 26.881 58.8895 26.3759C57.8808 25.3672 57.8808 23.7319 58.8895 22.7231C62.8498 18.7629 62.8498 12.0694 58.8895 8.1092C54.9293 4.14895 48.2359 4.14895 44.2756 8.1092C43.2681 9.11799 41.6303 9.11799 40.6228 8.1092C39.614 7.10041 39.614 5.46516 40.6228 4.45637C46.5645 -1.48529 56.602 -1.48529 62.5437 4.45637C68.4853 10.398 68.4853 20.4356 62.5437 26.3772C62.0386 26.881 61.3773 27.1329 60.716 27.1329V27.1329Z" fill="white"/>
</svg>
